<?xml version="1.0" standalone="no"?>
<!DOCTYPE svg PUBLIC "-//W3C//DTD SVG 20010904//EN"
 "http://www.w3.org/TR/2001/REC-SVG-20010904/DTD/svg10.dtd">
<svg version="1.0" xmlns="http://www.w3.org/2000/svg"
 width="320.000000pt" height="320.000000pt" viewBox="0 0 320.000000 320.000000"
 preserveAspectRatio="xMidYMid meet">
<metadata>
Created by potrace 1.11, written by Peter Selinger 2001-2013
</metadata>
<g transform="translate(0.000000,320.000000) scale(0.100000,-0.100000)"
fill="#000000" stroke="none">
<path d="M2170 2805 l0 -245 -57 29 c-291 146 -657 146 -960 1 -131 -62 -215
-121 -314 -222 -174 -175 -291 -419 -315 -655 l-7 -63 -258 0 -259 0 0 -60 0
-60 257 -2 257 -3 13 -88 c35 -248 141 -463 312 -635 99 -101 183 -160 314
-222 303 -145 669 -145 960 1 l57 29 0 -244 0 -245 33 10 c17 6 44 15 60 21
l27 10 0 259 0 259 99 95 c159 153 263 327 318 532 24 89 27 115 27 278 0 163
-3 189 -27 278 -55 205 -159 379 -318 532 l-99 95 0 260 0 261 -42 19 c-83 38
-78 51 -78 -225z m-303 -254 c100 -25 228 -80 215 -93 -6 -6 -142 -88 -303
-183 l-294 -173 -3 54 -3 54 -119 0 -120 0 0 -280 0 -280 -301 0 -302 0 6 58
c24 220 160 481 328 624 134 115 313 202 478 233 104 20 309 13 418 -14z m407
-210 c152 -129 273 -325 321 -522 37 -150 29 -377 -17 -528 -54 -179 -190
-378 -331 -485 -35 -27 -37 -27 -64 -11 -16 9 -57 62 -93 118 -35 56 -93 147
-128 201 l-64 99 -30 -49 c-17 -27 -42 -68 -57 -91 l-27 -42 -152 90 -152 90
2 376 3 375 360 214 c198 117 362 213 365 214 3 0 32 -22 64 -49z m-1034
-1096 l0 -285 120 0 119 0 3 54 3 54 110 -65 c61 -35 114 -68 118 -72 5 -5
-15 -47 -43 -95 -29 -48 -50 -89 -48 -90 1 -2 106 -11 233 -20 126 -9 231 -18
232 -20 8 -8 -147 -69 -220 -87 -117 -29 -289 -35 -403 -15 -177 31 -353 114
-493 234 -170 145 -307 408 -328 630 l-6 62 302 0 301 0 0 -285z"/>
</g>
</svg>
